<?xml version="1.0" standalone="no"?>
<!DOCTYPE svg PUBLIC "-//W3C//DTD SVG 20010904//EN"
 "http://www.w3.org/TR/2001/REC-SVG-20010904/DTD/svg10.dtd">
<svg version="1.0" xmlns="http://www.w3.org/2000/svg"
 width="820.000000pt" height="875.000000pt" viewBox="0 0 820.000000 875.000000"
 preserveAspectRatio="xMidYMid meet">

<g transform="translate(0.000000,875.000000) scale(0.100000,-0.100000)"
fill="#000000" stroke="none">
<path d="M3485 8335 c-987 -99 -1922 -710 -2569 -1680 -398 -596 -667 -1299
-771 -2010 -100 -682 -29 -1389 200 -2005 63 -169 225 -497 322 -650 496 -788
1291 -1383 2189 -1636 520 -146 1114 -183 1669 -103 929 134 1797 568 2456
1228 312 314 526 606 709 971 358 714 485 1541 364 2379 -133 929 -557 1784
-1204 2431 -235 236 -422 379 -674 519 -343 190 -786 326 -1303 401 -78 11
-199 36 -269 55 -371 102 -755 136 -1119 100z m330 -645 c493 -16 730 -36 840
-70 122 -39 155 -44 203 -30 36 9 63 6 191 -20 362 -74 686 -195 951 -356 722
-436 1288 -1340 1474 -2354 53 -292 61 -384 61 -725 -1 -346 -11 -451 -70
-701 -203 -858 -781 -1617 -1610 -2113 -913 -547 -1995 -688 -2936 -385 -548
176 -1034 476 -1430 880 -517 529 -770 1118 -819 1904 -31 487 56 1108 226
1617 96 288 268 654 421 898 460 731 1089 1237 1788 1439 116 33 124 34 255
30 74 -2 279 -9 455 -14z"/>
<path d="M2913 5280 c-161 -33 -265 -196 -234 -365 32 -170 149 -263 320 -253
119 7 193 55 249 162 24 45 27 62 27 146 0 107 -17 157 -74 223 -62 70 -187
108 -288 87z"/>
<path d="M5087 5250 c-59 -10 -124 -48 -166 -95 -110 -126 -94 -352 33 -461
56 -48 121 -67 214 -62 131 6 218 68 263 187 30 79 24 204 -14 277 -41 80
-113 136 -192 149 -76 12 -90 13 -138 5z"/>
<path d="M2535 3667 c-106 -35 -187 -105 -228 -195 -32 -70 -30 -171 5 -239
58 -109 404 -382 672 -528 255 -139 537 -233 821 -276 166 -25 441 -27 604 -4
482 68 948 303 1307 660 71 71 95 101 108 139 37 114 8 235 -78 321 -75 75
-133 100 -231 100 -100 0 -137 -18 -245 -119 -269 -252 -539 -398 -863 -468
-140 -30 -423 -32 -572 -4 -328 61 -658 230 -954 485 -57 50 -124 99 -148 111
-56 26 -146 34 -198 17z"/>
</g>
</svg>
